<svg xmlns="http://www.w3.org/2000/svg" height="20" viewBox="0 -960 960 960" width="20"><path d="M494-113q-93.018 0-164.009-56Q259-225 239-315q-79-16-134-72.5T50-525q0-87 65-146.5T269-731h96q8.6 0 14.3-5.7 5.7-5.7 5.7-14.3 0-8.6-5.7-14.3-5.7-5.7-14.3-5.7h-60q-23.3 0-39.15-15.789-15.85-15.79-15.85-39Q250-849 265.85-865T305-881h60q54.32 0 92.16 37.775 37.84 37.774 37.84 92Q495-697 457.16-658.5 419.32-620 365-620h-96q-43 0-76 27t-33 69.798Q160-488 184-462.5t58 35.5q16-76 82.5-118.5T471-588q20 0 41.5 3.5T552-573q-45 27-70.5 70.207Q456-459.586 456-409q0 26 8.5 49t21.5 48l51-34q-8-14-13-31t-5-32q0-53 37.025-90.5t90.427-37.5Q700-537 737.5-499.283 775-461.565 775-408q0 23.435-6 44.217Q763-343 748-326l89.043 85.182Q850-229 858-213.628q8 15.372 8 32.628 0 30.231-22.5 49.115Q821-113 790-113H494Zm181.789-82Q697-195 712.5-210.289q15.5-15.29 15.5-36.5Q728-268 712.711-283q-15.29-15-36.5-15Q655-298 640-283.211q-15 14.79-15 36Q625-226 639.789-210.5q14.79 15.5 36 15.5Z"/></svg>